<?xml version="1.0" encoding="UTF-8" standalone="no"?>
<!-- Created with Inkscape (http://www.inkscape.org/) -->

<svg
   xmlns:dc="http://purl.org/dc/elements/1.1/"
   xmlns:cc="http://creativecommons.org/ns#"
   xmlns:rdf="http://www.w3.org/1999/02/22-rdf-syntax-ns#"
   xmlns:svg="http://www.w3.org/2000/svg"
   xmlns="http://www.w3.org/2000/svg"
   version="1.1"
   width="800"
   height="800"
   id="svg2">
  <defs
     id="defs4" />
  <metadata
     id="metadata7">
    <rdf:RDF>
      <cc:Work
         rdf:about="">
        <dc:format>image/svg+xml</dc:format>
        <dc:type
           rdf:resource="http://purl.org/dc/dcmitype/StillImage" />
        <dc:title></dc:title>
      </cc:Work>
    </rdf:RDF>
  </metadata>
  <g
     transform="translate(0,-252.36218)"
     id="layer1">
    <g
       transform="matrix(0.78459217,0,0,0.78459217,97.371575,225.70822)"
       id="g3976">
      <g
         transform="translate(13.670214,-25.423482)"
         id="layer1-7"
         style="fill:#000000;stroke:#000000;stroke-width:1.27454746">
        <path
           d="m 568.57,620.93 c 0,116.77 -94.66,211.43 -211.43,211.43 -116.77,0 -211.43,-94.66 -211.43,-211.43 v -10e-6"
           transform="translate(14.904,0)"
           id="path2985"
           style="opacity:0.98999999;fill:#000000;fill-opacity:0;stroke-width:25.49094963;stroke-linecap:round" />
        <path
           d="m 568.57,620.93 c 0,116.77 -94.66,211.43 -211.43,211.43 -116.77,0 -211.43,-94.66 -211.43,-211.43 v -10e-6"
           transform="translate(14.904,0)"
           id="path2987"
           style="opacity:0.98999999;fill:#000000;fill-opacity:0;stroke-width:50.98189926;stroke-linecap:round" />
        <path
           d="M 372.05,832.36 V 946.65"
           id="path2989"
           style="fill:#000000;stroke-width:38.23642349" />
        <path
           d="m 197.14,920.93 c 1e-5,-18.935 59.482,-34.286 132.86,-34.286 73.375,0 132.86,15.35 132.86,34.286 z"
           transform="translate(42.047,34.286)"
           id="path2993"
           style="opacity:0.98999999;fill:#000000;stroke-width:25.49094963;stroke-linecap:round" />
        <path
           d="m 372.06,183.94 c -77.019,-1e-5 -139.47,62.45 -139.47,139.47 v 289.62 c 0,77.019 62.45,139.47 139.47,139.47 77.019,0 139.44,-62.45 139.44,-139.47 V 323.41 c 0,-77.02 -62.42,-139.47 -139.44,-139.47 z"
           id="path2997"
           style="opacity:0.98999999;fill:#000000;stroke-width:27.34541702;stroke-linecap:round" />
      </g>
      <path
         d="m -211.42859,518.07648 a 580,580 0 1 1 -1160.00001,0 580,580 0 1 1 1160.00001,0 z"
         transform="matrix(0.82758621,0,0,0.82758621,1040.6896,115.03782)"
         id="path3004"
         style="fill:none;stroke:#000000;stroke-width:53.4407196;stroke-linecap:butt;stroke-linejoin:miter;stroke-miterlimit:4;stroke-opacity:1;stroke-dasharray:none;marker-start:none" />
    </g>
  </g>
</svg>
